<svg width="42" height="43" viewBox="0 0 42 43" fill="none" xmlns="http://www.w3.org/2000/svg">
<rect y="0.5" width="42" height="42" rx="12" fill="#E8EDFF"/>
<g clip-path="url(#clip0_1_68)">
<path d="M17.3333 20.2777H14.8889V22.7222H17.3333V20.2777ZM22.2222 20.2777H19.7778V22.7222H22.2222V20.2777ZM27.1111 20.2777H24.6667V22.7222H27.1111V20.2777ZM29.5556 11.7222H28.3333V9.27771H25.8889V11.7222H16.1111V9.27771H13.6667V11.7222H12.4444C11.0878 11.7222 10.0122 12.8222 10.0122 14.1666L10 31.2777C10 32.6222 11.0878 33.7222 12.4444 33.7222H29.5556C30.9 33.7222 32 32.6222 32 31.2777V14.1666C32 12.8222 30.9 11.7222 29.5556 11.7222ZM29.5556 31.2777H12.4444V17.8333H29.5556V31.2777Z" fill="#3258E8"/>
</g>
<defs>
<clipPath id="clip0_1_68">
<rect width="32" height="32" fill="white" transform="translate(5 5.5)"/>
</clipPath>
</defs>
</svg>
