<svg width="42" height="43" viewBox="0 0 42 43" fill="none" xmlns="http://www.w3.org/2000/svg">
<rect y="0.5" width="42" height="42" rx="12" fill="#E8EDFF"/>
<g clip-path="url(#clip0_1_57)">
<path d="M13.527 18.79L31.5837 24.021C32.5949 24.3139 33.9332 23.9675 33.7831 22.9255C33.523 21.1202 31.5334 20.3271 29.8023 19.7526L25.246 18.2403L22.7556 10.251L20.1025 7.74989L20.092 16.5161L14.9376 15.1049L12.9113 11.0008L10.8809 10.3405L10.4075 14.2822C9.15775 14.1071 9.46884 15.278 9.78061 15.8853L13.527 18.79Z" fill="#3258E8"/>
<path d="M8.00003 30.9375C8.00003 30.0746 8.69958 29.375 9.56253 29.375H33.4375C34.3005 29.375 35 30.0746 35 30.9375C35 31.8004 34.3005 32.5 33.4375 32.5H9.56253C8.69958 32.5 8.00003 31.8004 8.00003 30.9375Z" fill="#3258E8"/>
</g>
<defs>
<clipPath id="clip0_1_57">
<rect width="32" height="32" fill="white" transform="translate(5 5.5)"/>
</clipPath>
</defs>
</svg>
