<svg width="42" height="43" viewBox="0 0 42 43" fill="none" xmlns="http://www.w3.org/2000/svg">
<rect y="0.5" width="42" height="42" rx="12" fill="#E8EDFF"/>
<path d="M16.2404 24.0438L32.9676 15.4642C33.9043 14.9838 34.6406 13.8137 33.8166 13.1585C32.389 12.0232 30.3972 12.8109 28.7435 13.5803L24.3907 15.6052L17.0984 11.5H13.4522L19.4577 17.8859L14.7391 20.3947L10.4494 18.7982L8.5191 19.7105L10.8784 22.9035C9.84888 23.6333 10.8784 24.2719 11.5218 24.5L16.2404 24.0438Z" fill="#3258E8"/>
<path d="M8 30.9376C8 30.0747 8.69955 29.3751 9.5625 29.3751H33.4375C34.3004 29.3751 35 30.0747 35 30.9376C35 31.8006 34.3004 32.5001 33.4375 32.5001H9.5625C8.69955 32.5001 8 31.8006 8 30.9376Z" fill="#3258E8"/>
</svg>
